<?xml version="1.0" encoding="UTF-8" standalone="no"?>
<!DOCTYPE svg PUBLIC "-//W3C//DTD SVG 1.1//EN"
 "http://www.w3.org/Graphics/SVG/1.1/DTD/svg11.dtd">
<!-- Generated by graphviz version 9.0.0 (20230911.1827)
 -->
<!-- Pages: 1 -->
<svg width="714pt" height="509pt"
 viewBox="0.00 0.00 713.50 508.62" xmlns="http://www.w3.org/2000/svg" xmlns:xlink="http://www.w3.org/1999/xlink">
<g id="graph0" class="graph" transform="scale(1 1) rotate(0) translate(4 504.62)">
<polygon fill="white" stroke="none" points="-4,4 -4,-504.62 709.5,-504.62 709.5,4 -4,4"/>
<!-- User -->
<g id="node1" class="node">
<title>User</title>
<polygon fill="none" stroke="black" points="19.25,-467.12 19.25,-496.62 101.25,-496.62 101.25,-467.12 19.25,-467.12"/>
<text text-anchor="start" x="39.62" y="-477.43" font-family="Helvetica,sans-Serif" font-weight="bold" font-size="16.00">User</text>
<polygon fill="none" stroke="black" points="19.25,-439.88 19.25,-467.12 101.25,-467.12 101.25,-439.88 19.25,-439.88"/>
<text text-anchor="start" x="24.25" y="-449.82" font-family="Helvetica,sans-Serif" text-decoration="underline" font-size="14.00">id</text>
<polygon fill="none" stroke="black" points="19.25,-412.62 19.25,-439.88 101.25,-439.88 101.25,-412.62 19.25,-412.62"/>
<text text-anchor="start" x="24.25" y="-421.57" font-family="Helvetica,sans-Serif" font-size="14.00">username</text>
<polygon fill="none" stroke="black" points="19.25,-385.38 19.25,-412.62 101.25,-412.62 101.25,-385.38 19.25,-385.38"/>
<text text-anchor="start" x="24.25" y="-394.32" font-family="Helvetica,sans-Serif" font-size="14.00">email</text>
<polygon fill="none" stroke="black" points="19.25,-358.12 19.25,-385.38 101.25,-385.38 101.25,-358.12 19.25,-358.12"/>
<text text-anchor="start" x="24.25" y="-367.07" font-family="Helvetica,sans-Serif" font-size="14.00">password</text>
<polygon fill="none" stroke="black" points="19.25,-330.88 19.25,-358.12 101.25,-358.12 101.25,-330.88 19.25,-330.88"/>
<text text-anchor="start" x="24.25" y="-339.82" font-family="Helvetica,sans-Serif" font-size="14.00">created_at</text>
</g>
<!-- Wallet -->
<g id="node2" class="node">
<title>Wallet</title>
<polygon fill="none" stroke="black" points="410.75,-312.5 410.75,-342 494.25,-342 494.25,-312.5 410.75,-312.5"/>
<text text-anchor="start" x="424.38" y="-322.8" font-family="Helvetica,sans-Serif" font-weight="bold" font-size="16.00">Wallet</text>
<polygon fill="none" stroke="black" points="410.75,-285.25 410.75,-312.5 494.25,-312.5 494.25,-285.25 410.75,-285.25"/>
<text text-anchor="start" x="415.75" y="-295.2" font-family="Helvetica,sans-Serif" text-decoration="underline" font-size="14.00">id</text>
<polygon fill="none" stroke="black" points="410.75,-258 410.75,-285.25 494.25,-285.25 494.25,-258 410.75,-258"/>
<text text-anchor="start" x="415.75" y="-266.95" font-family="Helvetica,sans-Serif" font-size="14.00">address</text>
<polygon fill="none" stroke="black" points="410.75,-230.75 410.75,-258 494.25,-258 494.25,-230.75 410.75,-230.75"/>
<text text-anchor="start" x="415.75" y="-239.7" font-family="Helvetica,sans-Serif" font-size="14.00">privateKey</text>
<polygon fill="none" stroke="black" points="410.75,-203.5 410.75,-230.75 494.25,-230.75 494.25,-203.5 410.75,-203.5"/>
<text text-anchor="start" x="415.75" y="-212.45" font-family="Helvetica,sans-Serif" font-size="14.00">userId</text>
</g>
<!-- User&#45;&#45;Wallet -->
<g id="edge1" class="edge">
<title>User&#45;&#45;Wallet</title>
<path fill="none" stroke="#7f7f7f" stroke-dasharray="5,2" d="M109.13,-429.9C165.1,-445.84 259.05,-463.25 329.75,-428.75 365.72,-411.2 394.16,-377.31 414.48,-345.6"/>
<text text-anchor="start" x="384.48" y="-349.55" font-family="Times,serif" font-size="14.00">0..N</text>
<text text-anchor="start" x="109.13" y="-416.6" font-family="Times,serif" font-size="14.00">1</text>
</g>
<!-- SavedWallet -->
<g id="node3" class="node">
<title>SavedWallet</title>
<polygon fill="none" stroke="black" points="201.5,-386.5 201.5,-416 321.75,-416 321.75,-386.5 201.5,-386.5"/>
<text text-anchor="start" x="206.5" y="-396.8" font-family="Helvetica,sans-Serif" font-weight="bold" font-size="16.00">SavedWallet</text>
<polygon fill="none" stroke="black" points="201.5,-359.25 201.5,-386.5 321.75,-386.5 321.75,-359.25 201.5,-359.25"/>
<text text-anchor="start" x="206.5" y="-369.2" font-family="Helvetica,sans-Serif" text-decoration="underline" font-size="14.00">id</text>
<polygon fill="none" stroke="black" points="201.5,-332 201.5,-359.25 321.75,-359.25 321.75,-332 201.5,-332"/>
<text text-anchor="start" x="206.5" y="-340.95" font-family="Helvetica,sans-Serif" font-size="14.00">userId</text>
<polygon fill="none" stroke="black" points="201.5,-304.75 201.5,-332 321.75,-332 321.75,-304.75 201.5,-304.75"/>
<text text-anchor="start" x="206.5" y="-313.7" font-family="Helvetica,sans-Serif" font-size="14.00">walletId</text>
<polygon fill="none" stroke="black" points="201.5,-277.5 201.5,-304.75 321.75,-304.75 321.75,-277.5 201.5,-277.5"/>
<text text-anchor="start" x="206.5" y="-286.45" font-family="Helvetica,sans-Serif" font-size="14.00">alias</text>
</g>
<!-- User&#45;&#45;SavedWallet -->
<g id="edge2" class="edge">
<title>User&#45;&#45;SavedWallet</title>
<path fill="none" stroke="#7f7f7f" stroke-dasharray="5,2" d="M109.01,-397.7C134.35,-389.18 165.91,-378.58 193.66,-369.25"/>
<text text-anchor="start" x="163.66" y="-355.95" font-family="Times,serif" font-size="14.00">0..N</text>
<text text-anchor="start" x="109.01" y="-384.4" font-family="Times,serif" font-size="14.00">1</text>
</g>
<!-- NFT -->
<g id="node6" class="node">
<title>NFT</title>
<polygon fill="none" stroke="black" points="583.25,-339.75 583.25,-369.25 697.5,-369.25 697.5,-339.75 583.25,-339.75"/>
<text text-anchor="start" x="622.38" y="-350.05" font-family="Helvetica,sans-Serif" font-weight="bold" font-size="16.00">NFT</text>
<polygon fill="none" stroke="black" points="583.25,-312.5 583.25,-339.75 697.5,-339.75 697.5,-312.5 583.25,-312.5"/>
<text text-anchor="start" x="588.25" y="-322.45" font-family="Helvetica,sans-Serif" text-decoration="underline" font-size="14.00">id</text>
<polygon fill="none" stroke="black" points="583.25,-285.25 583.25,-312.5 697.5,-312.5 697.5,-285.25 583.25,-285.25"/>
<text text-anchor="start" x="588.25" y="-294.2" font-family="Helvetica,sans-Serif" font-size="14.00">tokenId</text>
<polygon fill="none" stroke="black" points="583.25,-258 583.25,-285.25 697.5,-285.25 697.5,-258 583.25,-258"/>
<text text-anchor="start" x="588.25" y="-266.95" font-family="Helvetica,sans-Serif" font-size="14.00">metadataURI</text>
<polygon fill="none" stroke="black" points="583.25,-230.75 583.25,-258 697.5,-258 697.5,-230.75 583.25,-230.75"/>
<text text-anchor="start" x="588.25" y="-239.7" font-family="Helvetica,sans-Serif" font-size="14.00">creatorWalletId</text>
<polygon fill="none" stroke="black" points="583.25,-203.5 583.25,-230.75 697.5,-230.75 697.5,-203.5 583.25,-203.5"/>
<text text-anchor="start" x="588.25" y="-212.45" font-family="Helvetica,sans-Serif" font-size="14.00">ownerWalletId</text>
<polygon fill="none" stroke="black" points="583.25,-176.25 583.25,-203.5 697.5,-203.5 697.5,-176.25 583.25,-176.25"/>
<text text-anchor="start" x="588.25" y="-185.2" font-family="Helvetica,sans-Serif" font-size="14.00">transactionId</text>
</g>
<!-- Wallet&#45;&#45;NFT -->
<g id="edge6" class="edge">
<title>Wallet&#45;&#45;NFT</title>
<path fill="none" stroke="#7f7f7f" stroke-dasharray="5,2" d="M501.85,-266.74C524.33,-265.93 551.38,-265.78 575.51,-266.3"/>
<text text-anchor="start" x="545.51" y="-253" font-family="Times,serif" font-size="14.00">0..N</text>
<text text-anchor="start" x="501.85" y="-253.44" font-family="Times,serif" font-size="14.00">1</text>
</g>
<!-- Wallet&#45;&#45;NFT -->
<g id="edge7" class="edge">
<title>Wallet&#45;&#45;NFT</title>
<path fill="none" stroke="#7f7f7f" stroke-dasharray="5,2" d="M501.85,-278.76C524.33,-279.57 551.38,-279.72 575.51,-279.2"/>
<text text-anchor="start" x="545.51" y="-283.15" font-family="Times,serif" font-size="14.00">0..N</text>
<text text-anchor="start" x="501.85" y="-282.71" font-family="Times,serif" font-size="14.00">1</text>
</g>
<!-- SavedWallet&#45;&#45;Wallet -->
<g id="edge3" class="edge">
<title>SavedWallet&#45;&#45;Wallet</title>
<path fill="none" stroke="#7f7f7f" stroke-dasharray="5,2" d="M329.75,-320.45C353.92,-310.98 380.71,-300.48 402.99,-291.76"/>
<text text-anchor="start" x="393.99" y="-278.46" font-family="Times,serif" font-size="14.00">1</text>
<text text-anchor="start" x="329.75" y="-307.15" font-family="Times,serif" font-size="14.00">0..N</text>
</g>
<!-- Block -->
<g id="node4" class="node">
<title>Block</title>
<polygon fill="none" stroke="black" points="8,-194.75 8,-224.25 112.5,-224.25 112.5,-194.75 8,-194.75"/>
<text text-anchor="start" x="35.88" y="-205.05" font-family="Helvetica,sans-Serif" font-weight="bold" font-size="16.00">Block</text>
<polygon fill="none" stroke="black" points="8,-167.5 8,-194.75 112.5,-194.75 112.5,-167.5 8,-167.5"/>
<text text-anchor="start" x="13" y="-177.45" font-family="Helvetica,sans-Serif" text-decoration="underline" font-size="14.00">id</text>
<polygon fill="none" stroke="black" points="8,-140.25 8,-167.5 112.5,-167.5 112.5,-140.25 8,-140.25"/>
<text text-anchor="start" x="13" y="-149.2" font-family="Helvetica,sans-Serif" font-size="14.00">index</text>
<polygon fill="none" stroke="black" points="8,-113 8,-140.25 112.5,-140.25 112.5,-113 8,-113"/>
<text text-anchor="start" x="13" y="-121.95" font-family="Helvetica,sans-Serif" font-size="14.00">timestamp</text>
<polygon fill="none" stroke="black" points="8,-85.75 8,-113 112.5,-113 112.5,-85.75 8,-85.75"/>
<text text-anchor="start" x="13" y="-94.7" font-family="Helvetica,sans-Serif" font-size="14.00">previousHash</text>
<polygon fill="none" stroke="black" points="8,-58.5 8,-85.75 112.5,-85.75 112.5,-58.5 8,-58.5"/>
<text text-anchor="start" x="13" y="-67.45" font-family="Helvetica,sans-Serif" font-size="14.00">hash</text>
<polygon fill="none" stroke="black" points="8,-31.25 8,-58.5 112.5,-58.5 112.5,-31.25 8,-31.25"/>
<text text-anchor="start" x="13" y="-40.2" font-family="Helvetica,sans-Serif" font-size="14.00">nonce</text>
</g>
<!-- Transaction -->
<g id="node5" class="node">
<title>Transaction</title>
<polygon fill="none" stroke="black" points="204.5,-222 204.5,-251.5 318.75,-251.5 318.75,-222 204.5,-222"/>
<text text-anchor="start" x="209.5" y="-232.3" font-family="Helvetica,sans-Serif" font-weight="bold" font-size="16.00">Transaction</text>
<polygon fill="none" stroke="black" points="204.5,-194.75 204.5,-222 318.75,-222 318.75,-194.75 204.5,-194.75"/>
<text text-anchor="start" x="209.5" y="-204.7" font-family="Helvetica,sans-Serif" text-decoration="underline" font-size="14.00">id</text>
<polygon fill="none" stroke="black" points="204.5,-167.5 204.5,-194.75 318.75,-194.75 318.75,-167.5 204.5,-167.5"/>
<text text-anchor="start" x="209.5" y="-176.45" font-family="Helvetica,sans-Serif" font-size="14.00">type</text>
<polygon fill="none" stroke="black" points="204.5,-140.25 204.5,-167.5 318.75,-167.5 318.75,-140.25 204.5,-140.25"/>
<text text-anchor="start" x="209.5" y="-149.2" font-family="Helvetica,sans-Serif" font-size="14.00">amount</text>
<polygon fill="none" stroke="black" points="204.5,-113 204.5,-140.25 318.75,-140.25 318.75,-113 204.5,-113"/>
<text text-anchor="start" x="209.5" y="-121.95" font-family="Helvetica,sans-Serif" font-size="14.00">fromWalletId</text>
<polygon fill="none" stroke="black" points="204.5,-85.75 204.5,-113 318.75,-113 318.75,-85.75 204.5,-85.75"/>
<text text-anchor="start" x="209.5" y="-94.7" font-family="Helvetica,sans-Serif" font-size="14.00">toWalletId</text>
<polygon fill="none" stroke="black" points="204.5,-58.5 204.5,-85.75 318.75,-85.75 318.75,-58.5 204.5,-58.5"/>
<text text-anchor="start" x="209.5" y="-67.45" font-family="Helvetica,sans-Serif" font-size="14.00">signature</text>
<polygon fill="none" stroke="black" points="204.5,-31.25 204.5,-58.5 318.75,-58.5 318.75,-31.25 204.5,-31.25"/>
<text text-anchor="start" x="209.5" y="-40.2" font-family="Helvetica,sans-Serif" font-size="14.00">timestamp</text>
<polygon fill="none" stroke="black" points="204.5,-4 204.5,-31.25 318.75,-31.25 318.75,-4 204.5,-4"/>
<text text-anchor="start" x="209.5" y="-12.95" font-family="Helvetica,sans-Serif" font-size="14.00">blockId</text>
</g>
<!-- Block&#45;&#45;Transaction -->
<g id="edge4" class="edge">
<title>Block&#45;&#45;Transaction</title>
<path fill="none" stroke="#7f7f7f" stroke-dasharray="5,2" d="M120.26,-127.75C144.26,-127.75 172.05,-127.75 196.55,-127.75"/>
<text text-anchor="start" x="166.55" y="-114.45" font-family="Times,serif" font-size="14.00">1..N</text>
<text text-anchor="start" x="120.26" y="-114.45" font-family="Times,serif" font-size="14.00">{0,1}</text>
</g>
<!-- Transaction&#45;&#45;Wallet -->
<g id="edge5" class="edge">
<title>Transaction&#45;&#45;Wallet</title>
<path fill="none" stroke="#7f7f7f" stroke-dasharray="5,2" d="M326.57,-176.84C351.51,-195.98 379.62,-217.57 402.85,-235.4"/>
<text text-anchor="start" x="372.85" y="-222.1" font-family="Times,serif" font-size="14.00">1..N</text>
<text text-anchor="start" x="326.57" y="-163.54" font-family="Times,serif" font-size="14.00">0..N</text>
</g>
<!-- Transaction&#45;&#45;NFT -->
<g id="edge8" class="edge">
<title>Transaction&#45;&#45;NFT</title>
<path fill="none" stroke="#7f7f7f" stroke-dasharray="5,2" d="M326.54,-139.43C375.75,-149.63 444.85,-166.62 502.25,-190.75 527.18,-201.23 553.01,-215.62 575.44,-229.43"/>
<text text-anchor="start" x="534.94" y="-216.13" font-family="Times,serif" font-size="14.00">{0,1}</text>
<text text-anchor="start" x="326.54" y="-126.13" font-family="Times,serif" font-size="14.00">0..N</text>
</g>
</g>
</svg>
